<svg width="1584" height="396" viewBox="0 0 1584 396" fill="none" xmlns="http://www.w3.org/2000/svg">
<rect width="1584" height="396" fill="#F5F5F5"/>
<g id="Awesome banner" clip-path="url(#clip0_0_1)">
<rect width="1584" height="396" fill="url(#paint0_linear_0_1)"/>
<ellipse id="Ellipse 2" cx="323" cy="64" rx="285" ry="288" fill="url(#paint1_linear_0_1)" fill-opacity="0.1"/>
<g id="copyright">
<path d="M75.95 334.52L72.30 334.52L72.30 311.16L77.20 311.16L83.70 330.04Q83.60 329.02 83.50 327.62Q83.41 326.23 83.33 324.79Q83.25 323.35 83.25 322.23L83.25 311.16L86.90 311.16L86.90 334.52L82 334.52L75.57 315.64Q75.63 316.57 75.73 317.88Q75.82 319.19 75.89 320.57Q75.95 321.94 75.95 323.10L75.95 334.52M98.80 334.84Q96.46 334.84 94.67 333.96Q92.88 333.08 91.89 331.53Q90.90 329.98 90.90 327.93Q90.90 325.78 92.13 324.18Q93.36 322.58 95.34 322.17L95.34 322.10Q93.65 321.75 92.61 320.38Q91.57 319 91.57 317.11Q91.57 315.26 92.48 313.85Q93.39 312.44 95.02 311.64Q96.66 310.84 98.80 310.84Q100.94 310.84 102.59 311.64Q104.24 312.44 105.15 313.85Q106.06 315.26 106.06 317.11Q106.06 319 105.01 320.38Q103.95 321.75 102.26 322.10L102.26 322.17Q104.24 322.58 105.47 324.18Q106.70 325.78 106.70 327.93Q106.70 329.98 105.71 331.53Q104.72 333.08 102.93 333.96Q101.14 334.84 98.80 334.84M98.80 320.73Q100.30 320.73 101.23 319.82Q102.16 318.90 102.16 317.46Q102.16 315.99 101.23 315.08Q100.30 314.17 98.80 314.17Q97.30 314.17 96.37 315.08Q95.44 315.99 95.44 317.46Q95.44 318.90 96.37 319.82Q97.30 320.73 98.80 320.73M98.80 331.45Q100.56 331.45 101.68 330.42Q102.80 329.40 102.80 327.74Q102.80 326.04 101.68 325Q100.56 323.96 98.80 323.96Q97.04 323.96 95.92 325Q94.80 326.04 94.80 327.74Q94.80 329.40 95.92 330.42Q97.04 331.45 98.80 331.45M114.35 334.52L110.70 334.52L110.70 311.16L115.60 311.16L122.10 330.04Q122 329.02 121.90 327.62Q121.81 326.23 121.73 324.79Q121.65 323.35 121.65 322.23L121.65 311.16L125.30 311.16L125.30 334.52L120.40 334.52L113.97 315.64Q114.03 316.57 114.13 317.88Q114.22 319.19 114.29 320.57Q114.35 321.94 114.35 323.10" fill="white" fill-opacity="0.9"/>
<path d="M161.48 325.24L151.24 325.24L151.24 322.68L161.48 322.68" fill="white" fill-opacity="0.9"/>
<path d="M195.02 334.84Q191.82 334.84 189.96 333.05Q188.11 331.26 188.11 328.12L188.11 317.56Q188.11 314.42 189.96 312.63Q191.82 310.84 195.02 310.84Q198.15 310.84 200.01 312.65Q201.87 314.46 201.87 317.56L198.99 317.56Q198.99 315.58 197.95 314.50Q196.91 313.43 195.02 313.43Q193.13 313.43 192.06 314.50Q190.99 315.58 190.99 317.56L190.99 328.12Q190.99 330.10 192.06 331.18Q193.13 332.25 195.02 332.25Q196.91 332.25 197.95 331.18Q198.99 330.10 198.99 328.12L201.87 328.12Q201.87 331.22 200.01 333.03Q198.15 334.84 195.02 334.84" fill="white" fill-opacity="0.9"/>
<path d="M213.96 334.84Q210.83 334.84 209 333.02Q207.18 331.19 207.18 327.80L207.18 317.88Q207.18 314.49 209 312.66Q210.83 310.84 213.96 310.84Q217.10 310.84 218.92 312.66Q220.75 314.49 220.75 317.85L220.75 327.80Q220.75 331.19 218.92 333.02Q217.10 334.84 213.96 334.84M213.96 332.25Q215.85 332.25 216.86 331.18Q217.87 330.10 217.87 328.12L217.87 317.56Q217.87 315.58 216.86 314.50Q215.85 313.43 213.96 313.43Q212.11 313.43 211.08 314.50Q210.06 315.58 210.06 317.56L210.06 328.12Q210.06 330.10 211.08 331.18Q212.11 332.25 213.96 332.25" fill="white" fill-opacity="0.9"/>
<path d="M228.65 334.52L225.87 334.52L225.87 311.16L230.12 311.16L233.10 321.27L236.20 311.16L240.46 311.16L240.46 334.52L237.67 334.52L237.67 323.48Q237.67 321.91 237.72 319.88Q237.77 317.85 237.87 315.77Q237.96 313.69 238.09 312.02L234.31 324.09L231.82 324.09L228.20 312.31Q228.46 314.68 228.55 317.50Q228.65 320.31 228.65 323.48" fill="white" fill-opacity="0.9"/>
<path d="M247.85 334.52L245.07 334.52L245.07 311.16L249.32 311.16L252.30 321.27L255.40 311.16L259.66 311.16L259.66 334.52L256.87 334.52L256.87 323.48Q256.87 321.91 256.92 319.88Q256.97 317.85 257.07 315.77Q257.16 313.69 257.29 312.02L253.51 324.09L251.02 324.09L247.40 312.31Q247.66 314.68 247.75 317.50Q247.85 320.31 247.85 323.48" fill="white" fill-opacity="0.9"/>
<path d="M271.56 334.84Q268.30 334.84 266.57 333.03Q264.84 331.22 264.84 328.12L264.84 311.16L267.72 311.16L267.72 328.12Q267.72 330.04 268.67 331.16Q269.61 332.28 271.56 332.28Q273.48 332.28 274.44 331.16Q275.40 330.04 275.40 328.12L275.40 311.16L278.28 311.16L278.28 328.12Q278.28 331.26 276.57 333.05Q274.86 334.84 271.56 334.84" fill="white" fill-opacity="0.9"/>
<path d="M286.83 334.52L284.04 334.52L284.04 311.16L287.88 311.16L295.02 331.16Q294.95 330.36 294.87 329.19Q294.79 328.02 294.75 326.73Q294.70 325.43 294.70 324.28L294.70 311.16L297.48 311.16L297.48 334.52L293.64 334.52L286.54 314.52Q286.60 315.29 286.67 316.46Q286.73 317.62 286.78 318.92Q286.83 320.22 286.83 321.40" fill="white" fill-opacity="0.9"/>
<path d="M316.20 334.52L303.72 334.52L303.72 331.90L308.49 331.90L308.49 313.78L303.72 313.78L303.72 311.16L316.20 311.16L316.20 313.78L311.43 313.78L311.43 331.90L316.20 331.90" fill="white" fill-opacity="0.9"/>
<path d="M330.60 334.52L327.72 334.52L327.72 313.78L321.32 313.78L321.32 311.16L337 311.16L337 313.78L330.60 313.78" fill="white" fill-opacity="0.9"/>
<path d="M349.80 334.52L346.92 334.52L346.92 325.78L339.88 311.16L342.95 311.16L347.50 320.76Q347.88 321.56 348.11 322.12Q348.33 322.68 348.39 322.94Q348.46 322.68 348.70 322.12Q348.94 321.56 349.32 320.76L353.87 311.16L356.84 311.16L349.80 325.78" fill="white" fill-opacity="0.9"/>
<path d="M382.83 334.52L380.04 334.52L380.04 311.16L383.88 311.16L391.02 331.16Q390.95 330.36 390.87 329.19Q390.79 328.02 390.75 326.73Q390.70 325.43 390.70 324.28L390.70 311.16L393.48 311.16L393.48 334.52L389.64 334.52L382.54 314.52Q382.60 315.29 382.67 316.46Q382.73 317.62 382.78 318.92Q382.83 320.22 382.83 321.40" fill="white" fill-opacity="0.9"/>
<path d="M405.96 334.84Q402.83 334.84 401 333.02Q399.18 331.19 399.18 327.80L399.18 317.88Q399.18 314.49 401 312.66Q402.83 310.84 405.96 310.84Q409.10 310.84 410.92 312.66Q412.75 314.49 412.75 317.85L412.75 327.80Q412.75 331.19 410.92 333.02Q409.10 334.84 405.96 334.84M405.96 332.25Q407.85 332.25 408.86 331.18Q409.87 330.10 409.87 328.12L409.87 317.56Q409.87 315.58 408.86 314.50Q407.85 313.43 405.96 313.43Q404.11 313.43 403.08 314.50Q402.06 315.58 402.06 317.56L402.06 328.12Q402.06 330.10 403.08 331.18Q404.11 332.25 405.96 332.25" fill="white" fill-opacity="0.9"/>
<path d="M424.55 334.52L418.51 334.52L418.51 311.16L424.55 311.16Q426.83 311.16 428.47 312.02Q430.12 312.89 431.03 314.46Q431.95 316.02 431.95 318.17L431.95 327.48Q431.95 329.62 431.03 331.21Q430.12 332.79 428.47 333.66Q426.83 334.52 424.55 334.52M421.39 313.72L421.39 331.96L424.55 331.96Q426.67 331.96 427.87 330.78Q429.07 329.59 429.07 327.48L429.07 318.17Q429.07 316.09 427.87 314.90Q426.67 313.72 424.55 313.72" fill="white" fill-opacity="0.9"/>
<path d="M451.40 334.52L437.96 334.52L437.96 311.16L451.40 311.16L451.40 313.78L440.81 313.78L440.81 321.02L450.28 321.02L450.28 323.58L440.81 323.58L440.81 331.90L451.40 331.90" fill="white" fill-opacity="0.9"/>
<path d="M463.69 334.84Q460.30 334.84 458.28 333.05Q456.27 331.26 456.27 328.12L459.15 328.12Q459.15 330.07 460.39 331.18Q461.64 332.28 463.69 332.28Q465.67 332.28 466.86 331.13Q468.04 329.98 468.04 328.12Q468.04 326.71 467.29 325.67Q466.54 324.63 465.13 324.25L461.58 323.26Q459.37 322.62 458.11 320.97Q456.84 319.32 456.84 317.08Q456.84 315.22 457.67 313.82Q458.51 312.41 460.01 311.62Q461.51 310.84 463.47 310.84Q465.45 310.84 466.97 311.62Q468.49 312.41 469.35 313.80Q470.22 315.19 470.22 317.02L467.34 317.02Q467.34 315.42 466.25 314.41Q465.16 313.40 463.47 313.40Q461.77 313.40 460.71 314.41Q459.66 315.42 459.66 317.02Q459.66 318.30 460.35 319.21Q461.03 320.12 462.28 320.47L465.93 321.50Q468.27 322.14 469.56 323.91Q470.86 325.69 470.86 328.12Q470.86 331.19 468.91 333.02Q466.95 334.84 463.69 334.84" fill="white" fill-opacity="0.9"/>
</g>
<path d="M73.41 197.64L71.20 197.64L75.76 180.12L78.66 180.12L83.20 197.64L81.02 197.64L79.86 192.98L74.56 192.98L73.41 197.64M76.34 185.74L74.99 191.16L79.41 191.16L78.06 185.76Q77.68 184.22 77.46 183.19Q77.25 182.16 77.20 181.85Q77.15 182.16 76.94 183.19Q76.72 184.22 76.34 185.74" fill="white" fill-opacity="0.7"/>
<path d="M88.77 197.64L86.61 197.64L86.61 180.12L92.25 180.12Q94.70 180.12 96.15 181.52Q97.60 182.93 97.60 185.28Q97.60 187.63 96.15 189.04Q94.70 190.44 92.25 190.44L88.77 190.44L88.77 197.64M88.77 182.06L88.77 188.50L92.25 188.50Q93.66 188.50 94.52 187.62Q95.37 186.74 95.37 185.28Q95.37 183.79 94.52 182.93Q93.66 182.06 92.25 182.06" fill="white" fill-opacity="0.7"/>
<path d="M110.68 197.64L101.32 197.64L101.32 195.67L104.90 195.67L104.90 182.09L101.32 182.09L101.32 180.12L110.68 180.12L110.68 182.09L107.10 182.09L107.10 195.67L110.68 195.67" fill="white" fill-opacity="0.7"/>
<path d="M131.97 201.96L129.81 201.96L129.81 184.44L131.97 184.44L131.97 186.96L131.99 186.96Q132.16 185.66 133.12 184.93Q134.08 184.20 135.57 184.20Q137.56 184.20 138.74 185.51Q139.91 186.82 139.91 189.10L139.91 192.96Q139.91 195.24 138.74 196.56Q137.56 197.88 135.57 197.88Q134.08 197.88 133.12 197.14Q132.16 196.39 131.99 195.12L131.92 195.12L131.97 198.12L131.97 201.96M134.85 196.01Q136.22 196.01 136.98 195.29Q137.75 194.57 137.75 192.96L137.75 189.12Q137.75 187.49 136.98 186.78Q136.22 186.07 134.85 186.07Q133.53 186.07 132.75 186.91Q131.97 187.75 131.97 189.24L131.97 192.84Q131.97 194.33 132.75 195.17Q133.53 196.01 134.85 196.01" fill="white" fill-opacity="0.7"/>
<path d="M149.20 197.83Q146.82 197.83 145.42 196.44Q144.02 195.05 144.02 192.55L144.02 189.53Q144.02 187.01 145.41 185.63Q146.80 184.25 149.20 184.25Q151.60 184.25 152.99 185.63Q154.38 187.01 154.38 189.53L154.38 192.55Q154.38 195.05 152.98 196.44Q151.58 197.83 149.20 197.83M149.20 195.91Q150.62 195.91 151.42 195.12Q152.22 194.33 152.22 192.79L152.22 189.29Q152.22 187.75 151.42 186.96Q150.62 186.17 149.20 186.17Q147.81 186.17 146.99 186.96Q146.18 187.75 146.18 189.29L146.18 192.79Q146.18 194.33 146.99 195.12Q147.81 195.91 149.20 195.91" fill="white" fill-opacity="0.7"/>
<path d="M161.68 197.64L159.30 197.64L157.14 184.44L159.02 184.44L160.36 193.75Q160.43 194.28 160.50 194.92Q160.58 195.55 160.60 195.96Q160.65 195.55 160.71 194.92Q160.77 194.28 160.86 193.75L162.52 184.44L164.68 184.44L166.34 193.75Q166.43 194.28 166.52 194.92Q166.60 195.55 166.62 195.96Q166.67 195.55 166.74 194.92Q166.82 194.28 166.89 193.75L168.28 184.44L170.06 184.44L167.80 197.64L165.42 197.64L163.91 188.52Q163.82 187.85 163.73 187.09Q163.65 186.34 163.60 185.93Q163.58 186.34 163.48 187.09Q163.38 187.85 163.26 188.52" fill="white" fill-opacity="0.7"/>
<path d="MNaN 197.88Q175.67 197.88 174.24 196.48Q172.82 195.07 172.82 192.60L172.82 189.48Q172.82 187.01 174.24 185.60Q175.67 184.20 NaN 184.20Q179.56 184.20 180.72 184.82Q181.89 185.45 182.54 186.58Q183.18 187.70 183.18 189.24L183.18 191.59L174.93 191.59L174.93 192.84Q174.93 194.30 175.77 195.16Q176.61 196.01 NaN 196.01Q179.20 196.01 179.98 195.54Q180.76 195.07 180.93 194.28L183.09 194.28Q182.87 195.94 181.48 196.91Q180.09 197.88 NaN 197.88M174.93 189.24L174.93 189.91L181.07 189.91L181.07 189.24Q181.07 187.68 180.27 186.83Q179.46 185.98 NaN 185.98Q176.54 185.98 175.73 186.83Q174.93 187.68 174.93 189.24" fill="white" fill-opacity="0.7"/>
<path d="M190.05 197.64L187.89 197.64L187.89 184.44L190.05 184.44L190.05 186.96L190.10 186.96Q190.26 185.69 191.18 184.94Q192.09 184.20 193.62 184.20Q195.69 184.20 196.80 185.44Q197.92 186.67 197.92 188.95L197.92 190.08L195.76 190.08L195.76 188.95Q195.76 186.07 192.95 186.07Q191.54 186.07 190.79 186.89Q190.05 187.70 190.05 189.24" fill="white" fill-opacity="0.7"/>
<path d="M207.33 197.83L206.27 197.83Q204.06 197.83 202.85 196.84Q201.64 195.84 201.64 194.02L203.80 194.02Q203.80 194.93 204.45 195.44Q205.10 195.96 206.27 195.96L207.33 195.96Q208.53 195.96 209.19 195.43Q209.85 194.90 209.85 193.94Q209.85 192.24 208.29 192.02L204.64 191.50Q203.30 191.30 202.55 190.38Q201.81 189.46 201.81 187.94Q201.81 186.22 203 185.23Q204.18 184.25 206.27 184.25L207.33 184.25Q209.25 184.25 210.46 185.20Q211.67 186.14 211.77 187.68L209.58 187.68Q209.54 186.98 208.92 186.53Q208.31 186.07 207.33 186.07L206.27 186.07Q205.17 186.07 204.54 186.58Q203.92 187.08 203.92 187.94Q203.92 189.34 205.19 189.53L208.60 190.01Q211.96 190.49 211.96 193.94Q211.96 195.79 210.75 196.81Q209.54 197.83 207.33 197.83" fill="white" fill-opacity="0.7"/>
<path d="M235.14 197.64L230.61 197.64L230.61 180.12L235.14 180.12Q236.85 180.12 238.08 180.77Q239.32 181.42 240 182.59Q240.69 183.77 240.69 185.38L240.69 192.36Q240.69 193.97 240 195.16Q239.32 196.34 238.08 196.99Q236.85 197.64 235.14 197.64M232.77 182.04L232.77 195.72L235.14 195.72Q236.73 195.72 237.63 194.83Q238.53 193.94 238.53 192.36L238.53 185.38Q238.53 183.82 237.63 182.93Q236.73 182.04 235.14 182.04" fill="white" fill-opacity="0.7"/>
<path d="M256.12 197.64L244.84 197.64L244.84 195.67L249.52 195.67L249.52 186.41L245.32 186.41L245.32 184.44L251.68 184.44L251.68 195.67L256.12 195.67L256.12 197.64M250.36 182.06Q249.57 182.06 249.11 181.66Q248.66 181.25 248.66 180.55Q248.66 179.83 249.11 179.41Q249.57 178.99 250.36 178.99Q251.15 178.99 251.61 179.41Q252.06 179.83 252.06 180.55Q252.06 181.25 251.61 181.66Q251.15 182.06 250.36 182.06" fill="white" fill-opacity="0.7"/>
<path d="M264.93 197.83L263.87 197.83Q261.66 197.83 260.45 196.84Q259.24 195.84 259.24 194.02L261.40 194.02Q261.40 194.93 262.05 195.44Q262.70 195.96 263.87 195.96L264.93 195.96Q266.13 195.96 266.79 195.43Q267.45 194.90 267.45 193.94Q267.45 192.24 265.89 192.02L262.24 191.50Q260.90 191.30 260.15 190.38Q259.41 189.46 259.41 187.94Q259.41 186.22 260.60 185.23Q261.78 184.25 263.87 184.25L264.93 184.25Q266.85 184.25 268.06 185.20Q269.27 186.14 269.37 187.68L267.18 187.68Q267.14 186.98 266.52 186.53Q265.91 186.07 264.93 186.07L263.87 186.07Q262.77 186.07 262.14 186.58Q261.52 187.08 261.52 187.94Q261.52 189.34 262.79 189.53L266.20 190.01Q269.56 190.49 269.56 193.94Q269.56 195.79 268.35 196.81Q267.14 197.83 264.93 197.83" fill="white" fill-opacity="0.7"/>
<path d="M278.99 197.88Q276.59 197.88 275.15 196.54Q273.71 195.19 273.71 192.84L273.71 189.24Q273.71 186.89 275.15 185.54Q276.59 184.20 278.99 184.20Q281.27 184.20 282.68 185.42Q284.08 186.65 284.15 188.76L281.99 188.76Q281.92 187.49 281.13 186.80Q280.34 186.12 278.99 186.12Q277.58 186.12 276.72 186.92Q275.87 187.73 275.87 189.22L275.87 192.84Q275.87 194.33 276.72 195.14Q277.58 195.96 278.99 195.96Q280.34 195.96 281.13 195.26Q281.92 194.57 281.99 193.32L284.15 193.32Q284.08 195.43 282.68 196.66Q281.27 197.88 278.99 197.88" fill="white" fill-opacity="0.7"/>
<path d="M293.20 197.83Q290.82 197.83 289.42 196.44Q288.02 195.05 288.02 192.55L288.02 189.53Q288.02 187.01 289.41 185.63Q290.80 184.25 293.20 184.25Q295.60 184.25 296.99 185.63Q298.38 187.01 298.38 189.53L298.38 192.55Q298.38 195.05 296.98 196.44Q295.58 197.83 293.20 197.83M293.20 195.91Q294.62 195.91 295.42 195.12Q296.22 194.33 296.22 192.79L296.22 189.29Q296.22 187.75 295.42 186.96Q294.62 186.17 293.20 186.17Q291.81 186.17 290.99 186.96Q290.18 187.75 290.18 189.29L290.18 192.79Q290.18 194.33 290.99 195.12Q291.81 195.91 293.20 195.91" fill="white" fill-opacity="0.7"/>
<path d="M309.02 197.64L306.18 197.64L301.70 184.44L304.02 184.44L306.90 193.32Q307.17 194.11 307.36 194.84Q307.55 195.58 307.65 195.98Q307.77 195.58 307.94 194.84Q308.10 194.11 308.34 193.32L311.22 184.44L313.50 184.44" fill="white" fill-opacity="0.7"/>
<path d="M322 197.88Q319.67 197.88 318.24 196.48Q316.82 195.07 316.82 192.60L316.82 189.48Q316.82 187.01 318.24 185.60Q319.67 184.20 322 184.20Q323.56 184.20 324.72 184.82Q325.89 185.45 326.54 186.58Q327.18 187.70 327.18 189.24L327.18 191.59L318.93 191.59L318.93 192.84Q318.93 194.30 319.77 195.16Q320.61 196.01 322 196.01Q323.20 196.01 323.98 195.54Q324.76 195.07 324.93 194.28L327.09 194.28Q326.87 195.94 325.48 196.91Q324.09 197.88 322 197.88M318.93 189.24L318.93 189.91L325.07 189.91L325.07 189.24Q325.07 187.68 324.27 186.83Q323.46 185.98 322 185.98Q320.54 185.98 319.73 186.83Q318.93 187.68 318.93 189.24" fill="white" fill-opacity="0.7"/>
<path d="M334.05 197.64L331.89 197.64L331.89 184.44L334.05 184.44L334.05 186.96L334.10 186.96Q334.26 185.69 335.18 184.94Q336.09 184.20 337.62 184.20Q339.69 184.20 340.80 185.44Q341.92 186.67 341.92 188.95L341.92 190.08L339.76 190.08L339.76 188.95Q339.76 186.07 336.95 186.07Q335.54 186.07 334.79 186.89Q334.05 187.70 334.05 189.24" fill="white" fill-opacity="0.7"/>
<path d="M350.13 201.96L347.87 201.96L349.82 196.82L344.90 184.44L347.22 184.44L350.34 192.60Q350.54 193.08 350.70 193.61Q350.87 194.14 350.94 194.52Q351.02 194.14 351.18 193.61Q351.35 193.08 351.52 192.60L354.42 184.44L356.70 184.44" fill="white" fill-opacity="0.7"/>
<path d="M376.22 197.64L374.13 197.64L374.13 180.12L377.32 180.12L379.55 187.70L381.88 180.12L385.07 180.12L385.07 197.64L382.98 197.64L382.98 189.36Q382.98 188.18 383.02 186.66Q383.06 185.14 383.13 183.58Q383.20 182.02 383.30 180.77L380.46 189.82L378.59 189.82L375.88 180.98Q376.07 182.76 376.14 184.87Q376.22 186.98 376.22 189.36" fill="white" fill-opacity="0.7"/>
<path d="M392.85 197.88Q390.81 197.88 389.61 196.74Q388.41 195.60 388.41 193.75Q388.41 192.53 388.96 191.62Q389.51 190.70 390.50 190.19Q391.48 189.67 392.75 189.67L396.83 189.67L396.83 188.64Q396.83 186.07 394.02 186.07Q392.78 186.07 392.01 186.53Q391.24 186.98 391.19 187.80L389.03 187.80Q389.15 186.24 390.48 185.22Q391.82 184.20 394.02 184.20Q396.42 184.20 397.71 185.35Q398.99 186.50 398.99 188.57L398.99 197.64L396.86 197.64L396.86 195.24L396.81 195.24Q396.62 196.46 395.58 197.17Q394.55 197.88 392.85 197.88M393.38 196.06Q394.96 196.06 395.90 195.29Q396.83 194.52 396.83 193.20L396.83 191.35L392.99 191.35Q391.94 191.35 391.28 191.99Q390.62 192.62 390.62 193.68Q390.62 194.78 391.35 195.42Q392.08 196.06 393.38 196.06" fill="white" fill-opacity="0.7"/>
<path d="M406.05 197.64L403.89 197.64L403.89 184.44L406.05 184.44L406.05 186.96L406.10 186.96Q406.26 185.69 407.18 184.94Q408.09 184.20 409.62 184.20Q411.69 184.20 412.80 185.44Q413.92 186.67 413.92 188.95L413.92 190.08L411.76 190.08L411.76 188.95Q411.76 186.07 408.95 186.07Q407.54 186.07 406.79 186.89Q406.05 187.70 406.05 189.24" fill="white" fill-opacity="0.7"/>
<path d="M420.09 197.64L417.93 197.64L417.93 180.12L420.09 180.12L420.09 189.89L422.61 189.89L426.30 184.44L428.78 184.44L424.53 190.73L429.02 197.64L426.50 197.64L422.66 191.76L420.09 191.76" fill="white" fill-opacity="0.7"/>
<path d="M437.20 197.88Q434.87 197.88 433.44 196.48Q432.02 195.07 432.02 192.60L432.02 189.48Q432.02 187.01 433.44 185.60Q434.87 184.20 437.20 184.20Q438.76 184.20 439.92 184.82Q441.09 185.45 441.74 186.58Q442.38 187.70 442.38 189.24L442.38 191.59L434.13 191.59L434.13 192.84Q434.13 194.30 434.97 195.16Q435.81 196.01 437.20 196.01Q438.40 196.01 439.18 195.54Q439.96 195.07 440.13 194.28L442.29 194.28Q442.07 195.94 440.68 196.91Q439.29 197.88 437.20 197.88M434.13 189.24L434.13 189.91L440.27 189.91L440.27 189.24Q440.27 187.68 439.47 186.83Q438.66 185.98 437.20 185.98Q435.74 185.98 434.93 186.83Q434.13 187.68 434.13 189.24" fill="white" fill-opacity="0.7"/>
<path d="M456.76 197.64L452.92 197.64Q451.29 197.64 450.30 196.69Q449.32 195.74 449.32 194.16L449.32 186.41L445.53 186.41L445.53 184.44L449.32 184.44L449.32 180.72L451.48 180.72L451.48 184.44L456.88 184.44L456.88 186.41L451.48 186.41L451.48 194.16Q451.48 194.83 451.88 195.25Q452.27 195.67 452.92 195.67L456.76 195.67" fill="white" fill-opacity="0.7"/>
<path d="M477.57 197.64L475.43 197.64L475.43 180.12L480.83 180.12Q482.39 180.12 483.57 180.76Q484.74 181.39 485.39 182.52Q486.04 183.65 486.04 185.16Q486.04 186.94 485.13 188.21Q484.22 189.48 482.70 189.98L486.28 197.64L483.90 197.64L480.47 190.20L477.57 190.20L477.57 197.64M477.57 182.06L477.57 188.26L480.83 188.26Q482.18 188.26 482.99 187.40Q483.81 186.55 483.81 185.16Q483.81 183.74 482.99 182.90Q482.18 182.06 480.83 182.06" fill="white" fill-opacity="0.7"/>
<path d="M494.80 197.88Q492.47 197.88 491.04 196.48Q489.62 195.07 489.62 192.60L489.62 189.48Q489.62 187.01 491.04 185.60Q492.47 184.20 494.80 184.20Q496.36 184.20 497.52 184.82Q498.69 185.45 499.34 186.58Q499.98 187.70 499.98 189.24L499.98 191.59L491.73 191.59L491.73 192.84Q491.73 194.30 492.57 195.16Q493.41 196.01 494.80 196.01Q496 196.01 496.78 195.54Q497.56 195.07 497.73 194.28L499.89 194.28Q499.67 195.94 498.28 196.91Q496.89 197.88 494.80 197.88M491.73 189.24L491.73 189.91L497.87 189.91L497.87 189.24Q497.87 187.68 497.07 186.83Q496.26 185.98 494.80 185.98Q493.34 185.98 492.53 186.83Q491.73 187.68 491.73 189.24" fill="white" fill-opacity="0.7"/>
<path d="M509.73 197.83L508.67 197.83Q506.46 197.83 505.25 196.84Q504.04 195.84 504.04 194.02L506.20 194.02Q506.20 194.93 506.85 195.44Q507.50 195.96 508.67 195.96L509.73 195.96Q510.93 195.96 511.59 195.43Q512.25 194.90 512.25 193.94Q512.25 192.24 510.69 192.02L507.04 191.50Q505.70 191.30 504.95 190.38Q504.21 189.46 504.21 187.94Q504.21 186.22 505.40 185.23Q506.58 184.25 508.67 184.25L509.73 184.25Q511.65 184.25 512.86 185.20Q514.07 186.14 514.17 187.68L511.98 187.68Q511.94 186.98 511.32 186.53Q510.71 186.07 509.73 186.07L508.67 186.07Q507.57 186.07 506.94 186.58Q506.32 187.08 506.32 187.94Q506.32 189.34 507.59 189.53L511 190.01Q514.36 190.49 514.36 193.94Q514.36 195.79 513.15 196.81Q511.94 197.83 509.73 197.83" fill="white" fill-opacity="0.7"/>
<path d="M523.60 197.88Q521.27 197.88 519.84 196.48Q518.42 195.07 518.42 192.60L518.42 189.48Q518.42 187.01 519.84 185.60Q521.27 184.20 523.60 184.20Q525.16 184.20 526.32 184.82Q527.49 185.45 528.14 186.58Q528.78 187.70 528.78 189.24L528.78 191.59L520.53 191.59L520.53 192.84Q520.53 194.30 521.37 195.16Q522.21 196.01 523.60 196.01Q524.80 196.01 525.58 195.54Q526.36 195.07 526.53 194.28L528.69 194.28Q528.47 195.94 527.08 196.91Q525.69 197.88 523.60 197.88M520.53 189.24L520.53 189.91L526.67 189.91L526.67 189.24Q526.67 187.68 525.87 186.83Q525.06 185.98 523.60 185.98Q522.14 185.98 521.33 186.83Q520.53 187.68 520.53 189.24" fill="white" fill-opacity="0.7"/>
<path d="M536.85 197.88Q534.81 197.88 533.61 196.74Q532.41 195.60 532.41 193.75Q532.41 192.53 532.96 191.62Q533.51 190.70 534.50 190.19Q535.48 189.67 536.75 189.67L540.83 189.67L540.83 188.64Q540.83 186.07 538.02 186.07Q536.78 186.07 536.01 186.53Q535.24 186.98 535.19 187.80L533.03 187.80Q533.15 186.24 534.48 185.22Q535.82 184.20 538.02 184.20Q540.42 184.20 541.71 185.35Q542.99 186.50 542.99 188.57L542.99 197.64L540.86 197.64L540.86 195.24L540.81 195.24Q540.62 196.46 539.58 197.17Q538.55 197.88 536.85 197.88M537.38 196.06Q538.96 196.06 539.90 195.29Q540.83 194.52 540.83 193.20L540.83 191.35L536.99 191.35Q535.94 191.35 535.28 191.99Q534.62 192.62 534.62 193.68Q534.62 194.78 535.35 195.42Q536.08 196.06 537.38 196.06" fill="white" fill-opacity="0.7"/>
<path d="M550.05 197.64L547.89 197.64L547.89 184.44L550.05 184.44L550.05 186.96L550.10 186.96Q550.26 185.69 551.18 184.94Q552.09 184.20 553.62 184.20Q555.69 184.20 556.80 185.44Q557.92 186.67 557.92 188.95L557.92 190.08L555.76 190.08L555.76 188.95Q555.76 186.07 552.95 186.07Q551.54 186.07 550.79 186.89Q550.05 187.70 550.05 189.24" fill="white" fill-opacity="0.7"/>
<path d="M566.99 197.88Q564.59 197.88 563.15 196.54Q561.71 195.19 561.71 192.84L561.71 189.24Q561.71 186.89 563.15 185.54Q564.59 184.20 566.99 184.20Q569.27 184.20 570.68 185.42Q572.08 186.65 572.15 188.76L569.99 188.76Q569.92 187.49 569.13 186.80Q568.34 186.12 566.99 186.12Q565.58 186.12 564.72 186.92Q563.87 187.73 563.87 189.22L563.87 192.84Q563.87 194.33 564.72 195.14Q565.58 195.96 566.99 195.96Q568.34 195.96 569.13 195.26Q569.92 194.57 569.99 193.32L572.15 193.32Q572.08 195.43 570.68 196.66Q569.27 197.88 566.99 197.88" fill="white" fill-opacity="0.7"/>
<path d="M578.37 197.64L576.21 197.64L576.21 180.12L578.37 180.12L578.37 186.96L578.39 186.96Q578.56 185.64 579.47 184.92Q580.38 184.20 581.90 184.20Q583.89 184.20 585.06 185.42Q586.24 186.65 586.24 188.76L586.24 197.64L584.08 197.64L584.08 189.12Q584.08 187.63 583.32 186.83Q582.57 186.02 581.27 186.02Q579.93 186.02 579.15 186.86Q578.37 187.70 578.37 189.24" fill="white" fill-opacity="0.7"/>
<path d="M611.08 197.64L608.92 197.64L608.92 182.09L604.12 182.09L604.12 180.12L615.88 180.12L615.88 182.09L611.08 182.09" fill="white" fill-opacity="0.7"/>
<path d="M624.40 197.83Q622.02 197.83 620.62 196.44Q619.22 195.05 619.22 192.55L619.22 189.53Q619.22 187.01 620.61 185.63Q622 184.25 624.40 184.25Q626.80 184.25 628.19 185.63Q629.58 187.01 629.58 189.53L629.58 192.55Q629.58 195.05 628.18 196.44Q626.78 197.83 624.40 197.83M624.40 195.91Q625.82 195.91 626.62 195.12Q627.42 194.33 627.42 192.79L627.42 189.29Q627.42 187.75 626.62 186.96Q625.82 186.17 624.40 186.17Q623.01 186.17 622.19 186.96Q621.38 187.75 621.38 189.29L621.38 192.79Q621.38 194.33 622.19 195.12Q623.01 195.91 624.40 195.91" fill="white" fill-opacity="0.7"/>
<path d="M638.80 197.83Q636.42 197.83 635.02 196.44Q633.62 195.05 633.62 192.55L633.62 189.53Q633.62 187.01 635.01 185.63Q636.40 184.25 638.80 184.25Q641.20 184.25 642.59 185.63Q643.98 187.01 643.98 189.53L643.98 192.55Q643.98 195.05 642.58 196.44Q641.18 197.83 638.80 197.83M638.80 195.91Q640.22 195.91 641.02 195.12Q641.82 194.33 641.82 192.79L641.82 189.29Q641.82 187.75 641.02 186.96Q640.22 186.17 638.80 186.17Q637.41 186.17 636.59 186.96Q635.78 187.75 635.78 189.29L635.78 192.79Q635.78 194.33 636.59 195.12Q637.41 195.91 638.80 195.91" fill="white" fill-opacity="0.7"/>
<path d="M659.20 197.64L655.12 197.64Q653.37 197.64 652.32 196.62Q651.28 195.60 651.28 193.92L651.28 182.09L646.72 182.09L646.72 180.12L653.44 180.12L653.44 193.92Q653.44 194.74 653.90 195.20Q654.35 195.67 655.12 195.67L659.20 195.67" fill="white" fill-opacity="0.7"/>
<path d="M667.60 197.88Q666.71 197.88 666.17 197.35Q665.63 196.82 665.63 195.98Q665.63 195.10 666.17 194.54Q666.71 193.99 667.60 193.99Q668.49 193.99 669.03 194.54Q669.57 195.10 669.57 195.98Q669.57 196.82 669.03 197.35Q668.49 197.88 667.60 197.88" fill="white" fill-opacity="0.7"/>
<path d="M91.18 137.02Q81.49 137.02 75.78 131.60Q70.06 126.17 70.06 116.67L70.06 85.28Q70.06 75.87 75.78 70.44Q81.49 65.02 91.18 65.02Q100.78 65.02 106.50 70.49Q112.21 75.96 112.21 85.28L102.70 85.28Q102.70 79.61 99.63 76.54Q96.56 73.47 91.18 73.47Q85.71 73.47 82.64 76.54Q79.57 79.61 79.57 85.28L79.57 116.67Q79.57 122.43 82.64 125.50Q85.71 128.57 91.18 128.57Q96.56 128.57 99.63 125.50Q102.70 122.43 102.70 116.67L102.70 107.55L89.07 107.55L89.07 99.10L112.21 99.10L112.21 116.67Q112.21 126.08 106.50 131.55Q100.78 137.02 91.18 137.02M148.78 137.02Q138.42 137.02 132.27 131.60Q126.13 126.17 126.13 116.67L135.63 116.67Q135.63 122.24 139.18 125.40Q142.74 128.57 148.78 128.57Q154.54 128.57 157.95 125.36Q161.36 122.14 161.36 116.76Q161.36 112.73 159.15 109.71Q156.94 106.68 152.91 105.63L142.54 102.84Q135.73 100.92 131.74 95.88Q127.76 90.84 127.76 83.93Q127.76 78.27 130.30 74Q132.85 69.72 137.46 67.37Q142.06 65.02 148.11 65.02Q154.26 65.02 158.91 67.37Q163.57 69.72 166.16 73.95Q168.75 78.17 168.75 83.74L159.34 83.74Q159.34 79.13 156.22 76.25Q153.10 73.37 148.11 73.37Q143.12 73.37 140.10 76.25Q137.07 79.13 137.07 83.74Q137.07 87.48 139.09 90.03Q141.10 92.57 144.75 93.63L155.41 96.51Q162.61 98.43 166.64 103.85Q170.67 109.28 170.67 116.76Q170.67 122.91 167.98 127.47Q165.30 132.03 160.35 134.52Q155.41 137.02 148.78 137.02M191.31 136.06L181.62 136.06L199.76 65.98L212.34 65.98L230.38 136.06L220.69 136.06L216.27 117.82L195.73 117.82L191.31 136.06M202.74 88.92L197.65 109.95L214.35 109.95L209.36 89.02Q207.92 83.26 207.06 79.23Q206.19 75.20 206 73.76Q205.81 75.20 204.94 79.23Q204.08 83.26 202.74 88.92M321.58 137.02Q311.89 137.02 306.18 131.60Q300.46 126.17 300.46 116.67L300.46 85.28Q300.46 75.87 306.18 70.44Q311.89 65.02 321.58 65.02Q331.18 65.02 336.90 70.49Q342.61 75.96 342.61 85.28L333.10 85.28Q333.10 79.61 330.03 76.54Q326.96 73.47 321.58 73.47Q316.11 73.47 313.04 76.54Q309.97 79.61 309.97 85.28L309.97 116.67Q309.97 122.43 313.04 125.50Q316.11 128.57 321.58 128.57Q326.96 128.57 330.03 125.50Q333.10 122.43 333.10 116.67L333.10 107.55L319.47 107.55L319.47 99.10L342.61 99.10L342.61 116.67Q342.61 126.08 336.90 131.55Q331.18 137.02 321.58 137.02M378.80 137.02Q369.20 137.02 363.63 131.45Q358.06 125.88 358.06 115.71L358.06 86.24Q358.06 76.16 363.63 70.59Q369.20 65.02 378.80 65.02Q388.40 65.02 393.97 70.54Q399.54 76.06 399.54 86.24L399.54 115.71Q399.54 125.88 393.97 131.45Q388.40 137.02 378.80 137.02M378.80 128.57Q384.18 128.57 387.10 125.50Q390.03 122.43 390.03 116.67L390.03 85.28Q390.03 79.61 387.15 76.54Q384.27 73.47 378.80 73.47Q373.33 73.47 370.45 76.54Q367.57 79.61 367.57 85.28L367.57 116.67Q367.57 122.43 370.50 125.50Q373.42 128.57 378.80 128.57M442.74 136.06L429.97 136.06L412.02 65.98L421.81 65.98L433.42 113.21Q434.58 117.72 435.39 121.90Q436.21 126.08 436.59 128.28Q436.88 126.08 437.79 121.85Q438.70 117.63 439.76 113.12L450.99 65.98L460.78 65.98" fill="url(#paint2_linear_0_1)"/>
<g id="Group 1">
<rect id="Rectangle 1" x="26" y="168" width="12" height="184" rx="5" fill="url(#paint3_linear_0_1)" fill-opacity="0.9"/>
</g>
<g id="Group 1_2">
<rect id="Rectangle 2" x="26" y="38" width="12" height="119" rx="5" fill="url(#paint4_linear_0_1)" fill-opacity="0.9"/>
</g>
<ellipse id="Ellipse 1" cx="148.5" cy="573" rx="215.5" ry="214" fill="url(#paint5_linear_0_1)" fill-opacity="0.4"/>
<rect id="Rectangle 3" x="1229" y="48" width="300" height="300" rx="25" fill="#FFFBFB" fill-opacity="0.9"/>
<g id="placeholder-logo"><g transform="translate(1229,48) translate(0.0,60.0) scale(1.2000)"><g fill="#666666">
  <path d="m88.05,27.65c-3.15,4 -3.2,51.2 -0.05,54.35c2.75,2.75 71.7,3.15 74.45,0.45c2.85,-2.9 2.3,-53.85 -0.65,-55.9c-1.95,-1.35 -7.15,-1.55 -36.95,-1.55l-34.7,0l-2.1,2.65zm69.45,3.35c0.65,0 1,8.6 1,23.75l0,23.75l-33,0l-33,0l-0.25,-23c-0.15,-12.6 -0.1,-23.45 0.15,-24.1c0.35,-0.85 8.9,-1.05 32.25,-0.75c17.55,0.2 32.3,0.35 32.85,0.35z"/>
  <path d="m99.15,37.3c-6.85,7.35 4.25,17.35 11.4,10.25c1.35,-1.35 2.45,-3.65 2.45,-5.05c0,-6.45 -9.35,-9.95 -13.85,-5.2z"/>
  <path d="m135,42.5c-0.7,0.85 -5.25,5.15 -10.1,9.6l-8.85,8.1l-3.2,-3.2l-3.15,-3.15l-6.35,6.3c-5.55,5.5 -6.35,6.75 -6.35,10.05l0,3.8l28.5,0l28.5,0l0,-8.6l0,-8.55l-8.15,-7.7c-9.35,-8.85 -9.15,-8.7 -10.85,-6.65zm7.25,15.2c0.95,0.9 1.75,2.9 1.75,4.45c6.35,-5.05 4.75,-7.15 4.9,-11.55c0.95,0 0,0 0,0l-6.65,7.1z"/>
  <path d="m53.65,110.75c0.1,4.8 0.45,8.65 0.75,8.5c0.35,-0.15 1.3,-0.25 2.1,-0.25c1.1,0 1.5,-1.2 1.5,-4.75l0,-4.75l3.25,5c4.9,7.5 6.2,6.75 6.55,-3.75c0.25,-8.15 0.15,-8.75 -1.7,-8.75c-1.65,0 -2.05,0.8 -2.3,4.75l-0.3,4.75l-2.8,-4.75c-4.85,-8.25 -7.25,-6.9 -7.05,4z"/>
  <path d="m91,108.9c0,9.65 0.3,10.1 6.1,10.1c5.8,0 7.15,-2.65 1.65,-3.2l-3.25,-0.3l-0.3,-6.75c-0.25,-5.95 -0.55,-6.75 -2.25,-6.75c-1.75,0 -1.95,0.7 -1.95,6.9z"/>
  <path d="m151,102.45c0,0.25 1,2.15 2.25,4.2c1.2,2.1 2.45,5.8 2.75,8.25c0.65,5.9 4,6.95 4,1.25c0.05,-2.1 1.25,-5.85 2.95,-8.9l2.9,-5.25l-2.5,0c-1.8,0 -2.8,0.85 -3.75,3.1l-1.3,3.05l-1.25,-3.05c-1.1,-2.6 -6.05,-4.8 -6.05,-2.65z"/>
  <path d="m191,107.45c0,9.05 3.4,8.85 4.25,-0.2c0.45,-5 0.35,-5.25 -1.9,-5.25c-2.2,0 -2.35,0.4 -2.35,5.45z"/>
  <path d="m180.8,104.75c-1.3,5.35 0.65,13.6 3.45,14.35c2.3,0.6 2.75,0.4 2.75,-1.2c0,-1.05 -0.45,-1.9 -1,-1.9c-0.55,0 -1,-1.6 -1,-3.5c0,-1.95 0.45,-3.5 1,-3.5c0.55,0 1,-0.7 1,-1.5c0,-0.85 -0.45,-1.5 -1,-1.5c-0.55,0 -1,-0.7 -1,-1.5c0,-2.1 -3.65,-1.9 -4.2,0.25z"/>
  <path d="m71.55,106.55c-2.2,2.25 -2.05,9.7 0.3,11.8c4.5,4.1 10.15,0.75 10.15,-6.1c0,-4.85 -2,-7.25 -6,-7.25c-1.55,0 -3.55,0.7 -4.45,1.55zm6.25,5.8c0.25,3.05 0,3.65 -1.6,3.65c-2.3,0 -3.25,-2.65 -2.05,-5.85c1.25,-3.35 3.3,-2.1 3.65,2.2z"/>
  <path d="m105.75,106.1c-2.5,1.45 -2.45,9.95 0.1,12.25c4.3,3.9 10.15,0.35 10.15,-6.2c0,-6 -5.15,-9.05 -10.25,-6.05zm6.05,6.25c0.25,3.05 0,3.65 -1.6,3.65c-2.3,0 -3.25,-2.65 -2.05,-5.85c1.25,-3.35 3.3,-2.1 3.65,2.2z"/>
  <path d="m119.2,106.2c-3.8,3.8 -0.4,12.55 4.4,11.35c1.9,-0.45 2.45,-0.3 2.15,0.65c-0.25,0.7 -1.55,1.2 -2.85,1.1c-4.05,-0.3 -5.35,0.45 -3.85,2.25c0.85,1.05 2.6,1.45 5.35,1.25l4.1,-0.3l0.3,-8.75l0.3,-8.75l-4.35,0c-2.4,0 -4.9,0.55 -5.55,1.2zm6.6,4.45c0.4,2.85 -2.15,4.85 -3.75,2.95c-0.9,-1.1 -0.9,-2 -0.05,-3.6c1.35,-2.5 3.4,-2.15 3.8,0.65z"/>
  <path d="m133.55,106.55c-2.2,2.25 -2.05,9.7 0.3,11.8c4.5,4.1 10.15,0.75 10.15,-6.1c0,-4.85 -2,-7.25 -6,-7.25c-1.55,0 -3.55,0.7 -4.45,1.55zm6.25,5.8c0.25,3.05 0,3.65 -1.6,3.65c-2.3,0 -3.25,-2.65 -2.05,-5.85c1.25,-3.35 3.3,-2.1 3.65,2.2z"/>
  <path d="m167.65,106.85c-3.9,4.3 -0.75,13.15 4.7,13.15c2.4,0 5.65,-2.75 5.65,-4.85c0,-1.4 -2.65,-1.55 -3.5,-0.15c-0.95,1.55 -4.5,1.15 -4.5,-0.5c0,-1.1 1.1,-1.5 4,-1.5c3.15,0 4,-0.35 4,-1.8c0,-5.3 -6.85,-8.25 -10.35,-4.35z"/>
  <path d="m191,117.5c0,2.15 0.4,2.6 2.25,2.3c1.5,-0.2 2.25,-1 2.25,-2.3c0,-1.3 -0.75,-2.1 -2.25,-2.3c-1.85,-0.3 -2.25,0.15 -2.25,2.3z"/>
 </g></g></g>
</g>
<defs>
<linearGradient id="paint0_linear_0_1" x1="0" y1="198" x2="1584" y2="198" gradientUnits="userSpaceOnUse">
<stop stop-color="#3D052C"/>
<stop offset="1"/>
</linearGradient>
<linearGradient id="paint1_linear_0_1" x1="323" y1="-224" x2="323" y2="352" gradientUnits="userSpaceOnUse">
<stop stop-color="#28F6F2" stop-opacity="0.4"/>
<stop offset="1" stop-color="#17908E" stop-opacity="0.7"/>
</linearGradient>
<linearGradient id="paint2_linear_0_1" x1="148.5" y1="38" x2="148.5" y2="140" gradientUnits="userSpaceOnUse">
<stop stop-color="white"/>
<stop offset="1" stop-color="#999999"/>
</linearGradient>
<linearGradient id="paint3_linear_0_1" x1="38" y1="260" x2="26" y2="260" gradientUnits="userSpaceOnUse">
<stop stop-color="#D9D9D9"/>
<stop offset="1" stop-color="#737373"/>
</linearGradient>
<linearGradient id="paint4_linear_0_1" x1="38" y1="97.5" x2="26" y2="97.5" gradientUnits="userSpaceOnUse">
<stop stop-color="#D9D9D9"/>
<stop offset="1" stop-color="#737373"/>
</linearGradient>
<linearGradient id="paint5_linear_0_1" x1="27.5" y1="434.5" x2="148.5" y2="787" gradientUnits="userSpaceOnUse">
<stop stop-color="#2E21BC"/>
<stop offset="1" stop-color="#150F56"/>
</linearGradient>
<clipPath id="clip0_0_1">
<rect width="1584" height="396" fill="white"/>
</clipPath>
</defs>
</svg>
